<svg version="1.1" viewBox="0 0 42 12" xmlns="http://www.w3.org/2000/svg"><path d="m6.58 2.13a4 4 0 1 0 2 6.52m-1-2.65h-3m8-3.87a4 4 0 1 0 2 6.52m0 2.35v-6.5a2.25 2.25 0 1 1 4.5 0v4m0-4a2.25 2.25 0 1 1 4.5 0v6.5" fill="none" stroke="#0a4" stroke-width="2"/><path d="m40 9.88q-0.0711 0.27-0.153 0.537-0.0782 0.267-0.167 0.537h-0.412q-0.064-0.149-0.139-0.356-0.0746-0.206-0.156-0.448-0.0782-0.245-0.164-0.515-0.0818-0.274-0.16-0.551h0.558q0.0284 0.128 0.0604 0.281 0.0356 0.149 0.0711 0.309 0.0391 0.16 0.0782 0.324 0.0427 0.16 0.0853 0.309 0.0462-0.156 0.0889-0.32 0.0462-0.164 0.0853-0.32 0.0427-0.16 0.0782-0.306 0.0391-0.149 0.0675-0.277h0.384q0.0284 0.128 0.064 0.277 0.0356 0.146 0.0746 0.306 0.0391 0.156 0.0818 0.32t0.0889 0.32q0.0426-0.149 0.0853-0.309 0.0427-0.164 0.0782-0.324 0.0391-0.16 0.0711-0.309 0.0356-0.153 0.064-0.281h0.551q-0.0782 0.277-0.164 0.551-0.0818 0.27-0.164 0.515-0.0782 0.242-0.156 0.448-0.0746 0.206-0.139 0.356h-0.412q-0.0889-0.27-0.174-0.537-0.0853-0.267-0.156-0.537zm-1.5 0.135q0 0.22-0.064 0.405-0.064 0.181-0.185 0.313-0.121 0.128-0.292 0.199-0.167 0.0711-0.377 0.0711-0.206 0-0.377-0.0711-0.167-0.0711-0.288-0.199-0.121-0.132-0.188-0.313-0.0675-0.185-0.0675-0.405t0.0675-0.402q0.0711-0.181 0.192-0.309 0.124-0.128 0.292-0.199 0.171-0.0711 0.37-0.0711 0.203 0 0.37 0.0711 0.171 0.0711 0.292 0.199 0.121 0.128 0.188 0.309 0.0675 0.181 0.0675 0.402zm-0.54 0q0-0.245-0.0995-0.384-0.096-0.142-0.277-0.142-0.181 0-0.281 0.142-0.0995 0.139-0.0995 0.384t0.0995 0.391q0.0995 0.142 0.281 0.142t0.277-0.142q0.0995-0.146 0.0995-0.391zm-3.3 0.938v-2.67l0.53-0.0853v0.896q0.0533-0.0178 0.135-0.032 0.0853-0.0178 0.164-0.0178 0.228 0 0.377 0.064 0.153 0.0604 0.242 0.174 0.0924 0.114 0.128 0.27 0.0391 0.156 0.0391 0.348v1.06h-0.53v-0.992q0-0.256-0.0675-0.363-0.064-0.107-0.242-0.107-0.0711 0-0.135 0.0142-0.0604 0.0107-0.11 0.0249v1.42zm-1.87-0.935q0-0.203 0.064-0.38 0.0675-0.181 0.192-0.313 0.124-0.135 0.302-0.213t0.405-0.0782q0.149 0 0.274 0.0284 0.124 0.0249 0.242 0.0746l-0.11 0.423q-0.0746-0.0284-0.164-0.0498-0.0889-0.0213-0.199-0.0213-0.235 0-0.352 0.146-0.114 0.146-0.114 0.384 0 0.252 0.107 0.391 0.11 0.139 0.38 0.139 0.096 0 0.206-0.0178 0.11-0.0178 0.203-0.0569l0.0746 0.434q-0.0924 0.0391-0.231 0.0675-0.139 0.0284-0.306 0.0284-0.256 0-0.441-0.0746-0.185-0.0782-0.306-0.21-0.117-0.132-0.174-0.309-0.0533-0.181-0.0533-0.391zm-0.288 0.97q-0.231-0.0036-0.377-0.0498-0.142-0.0462-0.228-0.128-0.0818-0.0853-0.114-0.203-0.0284-0.121-0.0284-0.27v-2.06l0.53-0.0853v2.04q0 0.0711 0.0107 0.128 0.0107 0.0569 0.0391 0.096 0.032 0.0391 0.0889 0.064 0.0569 0.0249 0.153 0.032zm-2-0.405q0.0782 0 0.149-0.0036 0.0711-0.0036 0.114-0.0107v-0.402q-0.032-0.0071-0.096-0.0142-0.064-0.0071-0.117-0.0071-0.0746 0-0.142 0.0107-0.064 0.0071-0.114 0.032-0.0498 0.0249-0.0782 0.0675-0.0284 0.0427-0.0284 0.107 0 0.124 0.0818 0.174 0.0853 0.0462 0.231 0.0462zm-0.0426-1.55q0.235 0 0.391 0.0533t0.249 0.153q0.096 0.0995 0.135 0.242 0.0391 0.142 0.0391 0.316v1.1q-0.114 0.0249-0.316 0.0569-0.203 0.0356-0.49 0.0356-0.181 0-0.331-0.032-0.146-0.032-0.252-0.103-0.107-0.0746-0.164-0.192-0.0569-0.117-0.0569-0.288 0-0.164 0.064-0.277 0.0675-0.114 0.178-0.181 0.11-0.0675 0.252-0.096 0.142-0.032 0.295-0.032 0.103 0 0.181 0.0107 0.0818 0.0071 0.132 0.0213v-0.0498q0-0.135-0.0818-0.217-0.0818-0.0818-0.284-0.0818-0.135 0-0.267 0.0213-0.132 0.0178-0.228 0.0533l-0.0675-0.427q0.0462-0.0142 0.114-0.0284 0.0711-0.0178 0.153-0.0284 0.0818-0.0142 0.171-0.0213 0.0924-0.0107 0.185-0.0107zm-3.17-0.544q0.064 0.117 0.146 0.292 0.0853 0.171 0.174 0.373 0.0924 0.199 0.181 0.409 0.0889 0.21 0.167 0.395 0.0782-0.185 0.167-0.395 0.0889-0.21 0.178-0.409 0.0924-0.203 0.174-0.373 0.0853-0.174 0.149-0.292h0.505q0.0356 0.245 0.064 0.551 0.032 0.302 0.0533 0.633 0.0249 0.327 0.0426 0.658 0.0213 0.331 0.0356 0.622h-0.54q-0.0107-0.359-0.0284-0.782-0.0178-0.423-0.0533-0.853-0.064 0.149-0.142 0.331-0.0782 0.181-0.156 0.363-0.0746 0.181-0.146 0.348-0.0711 0.164-0.121 0.281h-0.388q-0.0498-0.117-0.121-0.281-0.0711-0.167-0.149-0.348-0.0746-0.181-0.153-0.363-0.0782-0.181-0.142-0.331-0.0356 0.43-0.0533 0.853t-0.0284 0.782h-0.54q0.0142-0.292 0.032-0.622 0.0213-0.331 0.0426-0.658 0.0249-0.331 0.0533-0.633 0.032-0.306 0.0675-0.551zm11.5-1.55q0.146 0 0.206-0.0284 0.0604-0.0284 0.0604-0.11 0-0.064-0.0782-0.11-0.0782-0.0498-0.238-0.11-0.124-0.0462-0.228-0.096-0.0995-0.0498-0.171-0.117-0.0711-0.0711-0.11-0.167-0.0391-0.096-0.0391-0.231 0-0.263 0.196-0.416 0.196-0.153 0.537-0.153 0.171 0 0.327 0.032 0.156 0.0284 0.249 0.064l-0.0924 0.412q-0.0924-0.032-0.203-0.0569-0.107-0.0249-0.242-0.0249-0.249 0-0.249 0.139 0 0.032 0.0107 0.0569t0.0427 0.0498q0.032 0.0213 0.0853 0.0498 0.0569 0.0249 0.142 0.0569 0.174 0.064 0.288 0.128 0.114 0.0604 0.178 0.135 0.0675 0.0711 0.0924 0.16 0.0284 0.0889 0.0284 0.206 0 0.277-0.21 0.419-0.206 0.142-0.586 0.142-0.249 0-0.416-0.0427-0.164-0.0427-0.228-0.0711l0.0889-0.43q0.135 0.0533 0.277 0.0853 0.142 0.0284 0.281 0.0284zm-1.03 0.316q-0.135 0.0391-0.348 0.0711-0.213 0.0356-0.448 0.0356-0.238 0-0.398-0.064-0.156-0.064-0.249-0.178-0.0924-0.117-0.132-0.277-0.0391-0.16-0.0391-0.352v-1.04h0.53v0.978q0 0.256 0.0675 0.37 0.0675 0.114 0.252 0.114 0.0569 0 0.121-0.00355 0.064-0.00711 0.114-0.0142v-1.44h0.53zm-2.54-0.857q0-0.245-0.11-0.391-0.11-0.149-0.327-0.149-0.0711 0-0.132 0.00711-0.0604 0.00355-0.0995 0.0107v0.956q0.0498 0.032 0.128 0.0533 0.0818 0.0213 0.164 0.0213 0.377 0 0.377-0.508zm0.54-0.0142q0 0.217-0.0533 0.395t-0.156 0.306-0.256 0.199q-0.153 0.0711-0.352 0.0711-0.11 0-0.206-0.0213-0.096-0.0213-0.185-0.0604v0.704h-0.53v-2.46q0.0711-0.0213 0.164-0.0391 0.0924-0.0213 0.192-0.0356 0.103-0.0142 0.206-0.0213 0.107-0.0107 0.203-0.0107 0.231 0 0.412 0.0711 0.181 0.0675 0.306 0.196 0.124 0.124 0.188 0.306 0.0675 0.181 0.0675 0.405zm-3.78-0.0569q0-0.256-0.0675-0.363-0.064-0.107-0.224-0.107-0.0498 0-0.103 0.00711-0.0533 0.00355-0.103 0.0107v1.44h-0.53v-1.81q0.0675-0.0178 0.156-0.0356 0.0924-0.0213 0.192-0.0356 0.103-0.0178 0.21-0.0249 0.107-0.0107 0.21-0.0107 0.203 0 0.327 0.0533 0.128 0.0498 0.21 0.121 0.114-0.0818 0.26-0.128 0.149-0.0462 0.274-0.0462 0.224 0 0.366 0.064 0.146 0.0604 0.231 0.174 0.0853 0.114 0.117 0.27 0.032 0.156 0.032 0.348v1.06h-0.53v-0.992q0-0.256-0.0675-0.363-0.064-0.107-0.224-0.107-0.0427 0-0.121 0.0213-0.0746 0.0213-0.124 0.0533 0.0249 0.0818 0.032 0.174 0.0071 0.0889 0.0071 0.192v1.02h-0.53zm-2.28 0.622q0.0782 0 0.149-0.00355 0.0711-0.00355 0.114-0.0107v-0.402q-0.032-0.00711-0.096-0.0142t-0.117-0.00711q-0.0746 0-0.142 0.0107-0.064 0.00711-0.114 0.032-0.0498 0.0249-0.0782 0.0675-0.0284 0.0427-0.0284 0.107 0 0.124 0.0818 0.174 0.0853 0.0462 0.231 0.0462zm-0.0426-1.55q0.235 0 0.391 0.0533t0.249 0.153q0.096 0.0995 0.135 0.242 0.0391 0.142 0.0391 0.316v1.1q-0.114 0.0249-0.316 0.0569-0.203 0.0356-0.49 0.0356-0.181 0-0.331-0.032-0.146-0.032-0.252-0.103-0.107-0.0746-0.164-0.192-0.0569-0.117-0.0569-0.288 0-0.164 0.064-0.277 0.0675-0.114 0.178-0.181 0.11-0.0675 0.252-0.096 0.142-0.032 0.295-0.032 0.103 0 0.181 0.0107 0.0818 0.00711 0.132 0.0213v-0.0498q0-0.135-0.0818-0.217-0.0818-0.0818-0.284-0.0818-0.135 0-0.267 0.0213-0.132 0.0178-0.228 0.0533l-0.0675-0.427q0.0462-0.0142 0.114-0.0284 0.0711-0.0178 0.153-0.0284 0.0818-0.0142 0.171-0.0213 0.0924-0.0107 0.185-0.0107zm-1.85 1.97q-0.601 0-0.917-0.334-0.313-0.334-0.313-0.949 0-0.306 0.096-0.544 0.096-0.242 0.263-0.405 0.167-0.167 0.398-0.252 0.231-0.0853 0.501-0.0853 0.156 0 0.284 0.0249 0.128 0.0213 0.224 0.0533 0.096 0.0284 0.16 0.0604 0.064 0.032 0.0924 0.0498l-0.16 0.448q-0.114-0.0604-0.267-0.103-0.149-0.0427-0.341-0.0427-0.128 0-0.252 0.0427-0.121 0.0427-0.217 0.139-0.0924 0.0924-0.149 0.242-0.0569 0.149-0.0569 0.363 0 0.171 0.0356 0.32 0.0391 0.146 0.121 0.252 0.0853 0.107 0.22 0.171 0.135 0.0604 0.327 0.0604 0.121 0 0.217-0.0142 0.096-0.0142 0.171-0.032 0.0746-0.0213 0.132-0.0462 0.0569-0.0249 0.103-0.0462l0.153 0.444q-0.117 0.0711-0.331 0.128-0.213 0.0569-0.494 0.0569zm10.2-5.08q-0.0711-0.0178-0.167-0.0356-0.096-0.0213-0.206-0.0213-0.0498 0-0.121 0.0107-0.0675 0.00711-0.103 0.0178v1.43h-0.53v-1.77q0.142-0.0498 0.334-0.0924 0.196-0.0462 0.434-0.0462 0.0426 0 0.103 0.00711 0.0604 0.00355 0.121 0.0142 0.0604 0.00711 0.121 0.0213 0.0604 0.0107 0.103 0.0284zm-3.29 0.48q0-0.249 0.0746-0.434 0.0782-0.188 0.203-0.313t0.284-0.188q0.164-0.064 0.334-0.064 0.398 0 0.629 0.245 0.231 0.242 0.231 0.714 0 0.0462-0.0036 0.103-0.0036 0.0533-0.0071 0.096h-1.2q0.0178 0.164 0.153 0.26 0.135 0.096 0.363 0.096 0.146 0 0.284-0.0249 0.142-0.0284 0.231-0.0675l0.0711 0.43q-0.0426 0.0213-0.114 0.0427-0.0711 0.0213-0.16 0.0356-0.0853 0.0178-0.185 0.0284-0.0995 0.0107-0.199 0.0107-0.252 0-0.441-0.0746-0.185-0.0746-0.309-0.203-0.121-0.132-0.181-0.309-0.0569-0.178-0.0569-0.384zm1.24-0.203q-0.0036-0.0675-0.0249-0.132-0.0178-0.064-0.0604-0.114-0.0391-0.0498-0.103-0.0818-0.0604-0.032-0.153-0.032-0.0889 0-0.153 0.032-0.064 0.0284-0.107 0.0782-0.0427 0.0498-0.0675 0.117-0.0213 0.064-0.032 0.132zm-3.25-0.682q0.135-0.0391 0.348-0.0711 0.213-0.0356 0.448-0.0356 0.238 0 0.395 0.064 0.16 0.0604 0.252 0.174 0.0924 0.114 0.132 0.27 0.0391 0.156 0.0391 0.348v1.06h-0.53v-0.992q0-0.256-0.0675-0.363t-0.252-0.107q-0.0569 0-0.121 0.00711-0.064 0.00355-0.114 0.0107v1.44h-0.53zm-0.498 1.74q-0.135 0.0391-0.348 0.0711-0.213 0.0356-0.448 0.0356-0.238 0-0.398-0.064-0.156-0.064-0.249-0.178-0.0924-0.117-0.132-0.277-0.0391-0.16-0.0391-0.352v-1.04h0.53v0.978q0 0.256 0.0675 0.37t0.252 0.114q0.0569 0 0.121-0.00355 0.064-0.00711 0.114-0.0142v-1.44h0.53zm-1.2-2.08q-0.11 0-0.192-0.0711-0.0818-0.0746-0.0818-0.199 0-0.124 0.0818-0.196 0.0818-0.0746 0.192-0.0746 0.11 0 0.192 0.0746 0.0818 0.0711 0.0818 0.196 0 0.124-0.0818 0.199-0.0818 0.0711-0.192 0.0711zm0.793 0q-0.11 0-0.192-0.0711-0.0818-0.0746-0.0818-0.199 0-0.124 0.0818-0.196 0.0818-0.0746 0.192-0.0746 0.11 0 0.192 0.0746 0.0818 0.0711 0.0818 0.196 0 0.124-0.0818 0.199-0.0818 0.0711-0.192 0.0711zm-1.56 0.739q-0.0711-0.0178-0.167-0.0356-0.096-0.0213-0.206-0.0213-0.0498 0-0.121 0.0107-0.0675 0.00711-0.103 0.0178v1.43h-0.53v-1.77q0.142-0.0498 0.334-0.0924 0.196-0.0462 0.434-0.0462 0.0426 0 0.103 0.00711 0.0604 0.00355 0.121 0.0142 0.0604 0.00711 0.121 0.0213 0.0604 0.0107 0.103 0.0284zm-2.38-0.636q-0.388 0-0.562 0.217-0.171 0.213-0.171 0.586 0 0.181 0.0427 0.331 0.0426 0.146 0.128 0.252 0.0853 0.107 0.213 0.167 0.128 0.0569 0.299 0.0569 0.0924 0 0.156-0.00355 0.0675-0.00355 0.117-0.0142v-0.857h0.554v1.22q-0.0995 0.0391-0.32 0.0818-0.22 0.0462-0.544 0.0462-0.277 0-0.505-0.0853-0.224-0.0853-0.384-0.249-0.16-0.164-0.249-0.402-0.0853-0.238-0.0853-0.544 0-0.309 0.096-0.547t0.263-0.402q0.167-0.167 0.391-0.252 0.228-0.0853 0.483-0.0853 0.174 0 0.313 0.0249 0.142 0.0213 0.242 0.0533 0.103 0.0284 0.167 0.0604 0.0675 0.032 0.096 0.0498l-0.16 0.444q-0.114-0.0604-0.263-0.103-0.146-0.0462-0.32-0.0462z" fill="#0a4"/></svg>
